HIERARCHY
ROOT Root
{
	OFFSET 0.00000 0.00000 0.00000
	CHANNELS 6 Xposition Yposition Zposition Zrotation Xrotation Yrotation
	JOINT Hips
	{
		OFFSET 0 0 0	
		CHANNELS 3 Zrotation Xrotation Yrotation
		JOINT Spine
		{
			OFFSET 0 4 0	
			CHANNELS 3 Zrotation Xrotation Yrotation
			JOINT Spine1
			{
				OFFSET 0 19.4 0	
				CHANNELS 3 Zrotation Xrotation Yrotation
				JOINT Spine2
				{
					OFFSET 0 16.6 0	
					CHANNELS 3 Zrotation Xrotation Yrotation
					JOINT LeftCollar
					{
						OFFSET 0 10 0	
						CHANNELS 3 Zrotation Xrotation Yrotation
						JOINT LeftArm
						{
							OFFSET 15.6 -2 3	
							CHANNELS 3 Zrotation Xrotation Yrotation
							JOINT LeftForeArm
							{
								OFFSET 3.5 -27 -1	
								CHANNELS 3 Zrotation Xrotation Yrotation
								JOINT LeftHand
								{
									OFFSET 1 -27 1	
									CHANNELS 3 Zrotation Xrotation Yrotation
									End Site
									{
										OFFSET 0 -15 0
									}
								}
							}
						}
					}
					JOINT RightCollar
					{
						OFFSET 0 10 0	
						CHANNELS 3 Zrotation Xrotation Yrotation
						JOINT RightArm
						{
							OFFSET -15.6 -2 3	
							CHANNELS 3 Zrotation Xrotation Yrotation
							JOINT RightForeArm
							{
								OFFSET -3.5 -27 -1	
								CHANNELS 3 Zrotation Xrotation Yrotation
								JOINT RightHand
								{
									OFFSET -1 -27 1	
									CHANNELS 3 Zrotation Xrotation Yrotation
									End Site
									{
										OFFSET 0 -15 0
									}
								}
							}
						}
					}
					JOINT Neck
					{
						OFFSET 0 10 0	
						CHANNELS 3 Zrotation Xrotation Yrotation
						JOINT Head
						{
							OFFSET 0 12.7 3	
							CHANNELS 3 Zrotation Xrotation Yrotation
							End Site
							{
								OFFSET 0 12.7 3
							}
						}
					}
				}
			}
		}
	}
	JOINT LeftHip
	{
		OFFSET 0 0 0	
		CHANNELS 3 Zrotation Xrotation Yrotation
		JOINT LeftUpLeg
		{
			OFFSET 8.8 -6 0	
			CHANNELS 3 Zrotation Xrotation Yrotation
			JOINT LeftLeg
			{
				OFFSET 0 -39 2	
				CHANNELS 3 Zrotation Xrotation Yrotation
				JOINT LeftFoot
				{
					OFFSET 0 -43 -2	
					CHANNELS 3 Zrotation Xrotation Yrotation
					JOINT LeftFootFront
					{
						OFFSET 0 -7 8.5	
						CHANNELS 3 Zrotation Xrotation Yrotation
						End Site
						{
							OFFSET 0 -0.5 9
						}
					}
				}
				JOINT LeftHeel
				{
					OFFSET 0 -43 -2	
					CHANNELS 3 Zrotation Xrotation Yrotation
					End Site
					{
						OFFSET 0 -7.5 -5
					}
				}
			}
		}
	}
	JOINT RightHip
	{
		OFFSET 0 0 0	
		CHANNELS 3 Zrotation Xrotation Yrotation
		JOINT RightUpLeg
		{
			OFFSET -8.8 -6 0	
			CHANNELS 3 Zrotation Xrotation Yrotation
			JOINT RightLeg
			{
				OFFSET 0 -39 2	
				CHANNELS 3 Zrotation Xrotation Yrotation
				JOINT RightFoot
				{
					OFFSET 0 -43 -2	
					CHANNELS 3 Zrotation Xrotation Yrotation
					JOINT RightFootFront
					{
						OFFSET 0 -7 8.5	
						CHANNELS 3 Zrotation Xrotation Yrotation
						End Site
						{
							OFFSET 0 -0.5 9
						}
					}
				}
				JOINT RightHeel
				{
					OFFSET 0 -43 -2	
					CHANNELS 3 Zrotation Xrotation Yrotation
					End Site
					{
						OFFSET 0 -7.5 -5
					}
				}
			}
		}
	}
}
MOTION
Frames: 20
Frame Time: 0.05
0 95.5 0 -0 0 -0 5.7557 7.7059 -9.0207 -1.8687 3.599 -4.3765 -1.8687 3.599 -4.3765 -1.588 3.0137 -3.6833 -0 0 -0 8.8121 -12.581 -23.255 -11.931 -17.797 -2.4831 2.509 -58.298 -15.325 -0 0 -0 -1.6021 -18.267 16.899 12.973 -17.726 12.618 -20.914 -45.426 -2.3855 0.9606 13.665 -5.1537 0.9606 13.665 -5.1537 -0 0 -0 -0 0 -0 -0 0 -0 -0 0 -0 -0 0 -0 -0 0 -0 -0 0 -0 -0 0 -0 -0 0 -0 -0 0 -0 -0 0 -0 -0 0 -0 
0 95.5 0 -0 0 -0 6.0023 7.484 -8.5177 -1.8794 3.5793 -4.3027 -1.8794 3.5793 -4.3027 -1.5965 2.9973 -3.6214 -0 0 -0 9.1312 -12.521 -22.203 -11.868 -17.863 -2.1258 2.1217 -58.075 -15.964 -0 0 -0 -1.7639 -18.147 16.388 12.644 -17.473 12.702 -19.655 -45.539 -1.9747 1.2779 13.624 -5.1916 1.2779 13.624 -5.1916 -0 0 -0 -0 0 -0 -0 0 -0 -0 0 -0 -0 0 -0 -0 0 -0 -0 0 -0 -0 0 -0 -0 0 -0 -0 0 -0 -0 0 -0 -0 0 -0 
0 95.5 0 -0 0 -0 6.3009 7.31 -7.8419 -1.8431 3.5543 -4.3032 -1.8431 3.5543 -4.3032 -1.5659 2.9765 -3.6216 -0 0 -0 9.0782 -12.666 -21.317 -11.357 -17.823 -1.6173 1.3805 -58.082 -17.108 -0 0 -0 -2.0914 -18.026 16.134 12.452 -17.181 12.557 -17.636 -45.914 -0.41309 1.5522 13.46 -5.2344 1.5522 13.46 -5.2344 -0 0 -0 -0 0 -0 -0 0 -0 -0 0 -0 -0 0 -0 -0 0 -0 -0 0 -0 -0 0 -0 -0 0 -0 -0 0 -0 -0 0 -0 -0 0 -0 
0 95.5 0 -0 0 -0 6.624 7.184 -7.0114 -1.7618 3.5153 -4.359 -1.7618 3.5153 -4.359 -1.4977 2.944 -3.668 -0 0 -0 8.8295 -12.923 -20.613 -10.477 -17.606 -0.73454 0.2206 -58.208 -18.603 -0 0 -0 -2.376 -18.008 15.807 12.493 -16.892 12.198 -15.507 -46.326 2.0227 1.7635 13.235 -5.2588 1.7635 13.235 -5.2588 -0 0 -0 -0 0 -0 -0 0 -0 -0 0 -0 -0 0 -0 -0 0 -0 -0 0 -0 -0 0 -0 -0 0 -0 -0 0 -0 -0 0 -0 -0 0 -0 
0 95.5 0 -0 0 -0 6.9539 7.0188 -5.9999 -1.6507 3.5229 -4.507 -1.6507 3.5229 -4.507 -1.405 2.9507 -3.7919 -0 0 -0 8.5514 -13.277 -20.092 -9.6568 -17.416 0.43983 -1.1973 -58.206 -19.903 -0 0 -0 -2.7045 -18.052 15.538 12.619 -16.782 11.9 -13.943 -46.69 3.8775 1.9415 12.998 -5.1982 1.9415 12.998 -5.1982 -0 0 -0 -0 0 -0 -0 0 -0 -0 0 -0 -0 0 -0 -0 0 -0 -0 0 -0 -0 0 -0 -0 0 -0 -0 0 -0 -0 0 -0 -0 0 -0 
0 95.5 0 -0 0 -0 7.3084 6.8528 -4.8411 -1.5626 3.5419 -4.6991 -1.5626 3.5419 -4.6991 -1.3319 2.9668 -3.9529 -0 0 -0 8.2374 -13.66 -19.91 -8.7356 -17.206 1.58 -2.263 -58.454 -20.833 -0 0 -0 -3.0065 -18.108 15.154 12.789 -16.83 11.645 -13.419 -47.107 4.6528 2.2001 12.812 -5.1654 2.2001 12.812 -5.1654 -0 0 -0 -0 0 -0 -0 0 -0 -0 0 -0 -0 0 -0 -0 0 -0 -0 0 -0 -0 0 -0 -0 0 -0 -0 0 -0 -0 0 -0 -0 0 -0 
0 95.5 0 -0 0 -0 7.7419 6.7339 -3.5902 -1.4983 3.5932 -4.9629 -1.4983 3.5932 -4.9629 -1.2793 3.0098 -4.1742 -0 0 -0 7.9317 -14.194 -19.822 -7.8296 -16.869 2.6778 -3.4443 -58.662 -21.634 -0 0 -0 -3.3032 -18.216 14.86 12.937 -16.985 11.461 -13.492 -47.466 4.7969 2.4722 12.609 -5.126 2.4722 12.609 -5.126 -0 0 -0 -0 0 -0 -0 0 -0 -0 0 -0 -0 0 -0 -0 0 -0 -0 0 -0 -0 0 -0 -0 0 -0 -0 0 -0 -0 0 -0 -0 0 -0 
0 95.5 0 -0 0 -0 8.1616 6.7556 -2.2486 -1.3861 3.5971 -5.2812 -1.3861 3.5971 -5.2812 -1.1865 3.0132 -4.4411 -0 0 -0 7.5341 -14.788 -19.881 -6.9063 -16.496 3.6582 -4.6935 -58.691 -22.421 -0 0 -0 -3.779 -18.104 14.75 13.063 -17.225 11.327 -13.722 -47.621 4.8847 2.6716 12.434 -5.0728 2.6716 12.434 -5.0728 -0 0 -0 -0 0 -0 -0 0 -0 -0 0 -0 -0 0 -0 -0 0 -0 -0 0 -0 -0 0 -0 -0 0 -0 -0 0 -0 -0 0 -0 -0 0 -0 
0 95.5 0 -0 0 -0 8.5081 6.8517 -0.90803 -1.2209 3.6017 -5.6148 -1.2209 3.6017 -5.6148 -1.0491 3.0177 -4.7205 -0 0 -0 7.0076 -15.479 -20.126 -5.904 -16.012 4.6074 -5.7526 -58.756 -23.114 -0 0 -0 -4.3767 -17.889 14.673 13.153 -17.394 11.24 -13.839 -47.214 4.9192 2.8074 12.286 -5.0188 2.8074 12.286 -5.0188 -0 0 -0 -0 0 -0 -0 0 -0 -0 0 -0 -0 0 -0 -0 0 -0 -0 0 -0 -0 0 -0 -0 0 -0 -0 0 -0 -0 0 -0 -0 0 -0 
0 95.5 0 -0 0 -0 8.7306 6.8803 0.19318 -1.0738 3.5879 -5.8758 -1.0738 3.5879 -5.8758 -0.92663 3.0067 -4.9391 -0 0 -0 6.5056 -16.007 -20.428 -5.1257 -15.503 5.5279 -6.797 -58.8 -23.533 -0 0 -0 -4.8802 -17.364 14.597 13.116 -17.446 11.336 -13.907 -46.778 4.8125 2.9912 12.11 -5.1151 2.9912 12.11 -5.1151 -0 0 -0 -0 0 -0 -0 0 -0 -0 0 -0 -0 0 -0 -0 0 -0 -0 0 -0 -0 0 -0 -0 0 -0 -0 0 -0 -0 0 -0 -0 0 -0 
0 95.5 0 -0 0 -0 8.8924 6.7997 0.93927 -1.0099 3.5527 -6.0476 -1.0099 3.5527 -6.0476 -0.87342 2.9774 -5.083 -0 0 -0 6.0907 -16.275 -20.633 -4.5268 -15.073 6.2184 -7.8402 -58.69 -23.79 -0 0 -0 -5.0736 -16.737 14.381 12.93 -17.292 11.735 -13.766 -46.828 4.4615 3.0188 12.1 -5.3324 3.0188 12.1 -5.3324 -0 0 -0 -0 0 -0 -0 0 -0 -0 0 -0 -0 0 -0 -0 0 -0 -0 0 -0 -0 0 -0 -0 0 -0 -0 0 -0 -0 0 -0 -0 0 -0 
0 95.5 0 -0 0 -0 9.0995 6.627 1.3417 -1.0141 3.551 -6.174 -1.0141 3.551 -6.1739 -0.87751 2.9758 -5.1892 -0 0 -0 5.759 -16.442 -20.659 -3.908 -14.668 6.7166 -8.6505 -58.6 -24.024 -0 0 -0 -5.0429 -16.355 13.978 12.77 -17.061 12.147 -13.518 -47.068 4.0793 3.1879 11.914 -5.4322 3.1879 11.914 -5.4322 -0 0 -0 -0 0 -0 -0 0 -0 -0 0 -0 -0 0 -0 -0 0 -0 -0 0 -0 -0 0 -0 -0 0 -0 -0 0 -0 -0 0 -0 -0 0 -0 
0 95.5 0 -0 0 -0 9.3875 6.415 1.4804 -1.0662 3.5651 -6.2721 -1.0662 3.5651 -6.2721 -0.92178 2.9872 -5.2719 -0 0 -0 5.6876 -16.45 -20.559 -3.5626 -14.45 7.089 -9.5444 -58.423 -24.218 -0 0 -0 -5.0151 -16.219 13.455 12.661 -16.901 12.507 -13.42 -47.316 3.7642 3.2993 11.719 -5.4713 3.2993 11.719 -5.4713 -0 0 -0 -0 0 -0 -0 0 -0 -0 0 -0 -0 0 -0 -0 0 -0 -0 0 -0 -0 0 -0 -0 0 -0 -0 0 -0 -0 0 -0 -0 0 -0 
0 95.5 0 -0 0 -0 9.6526 6.205 1.3781 -1.1076 3.581 -6.3333 -1.1076 3.581 -6.3333 -0.95693 3.0002 -5.3234 -0 0 -0 5.6665 -16.47 -20.335 -3.5683 -14.369 6.98 -10.739 -57.862 -24.424 -0 0 -0 -5.101 -16.066 13.048 12.44 -17.015 12.795 -13.799 -47.826 3.1184 2.979 11.659 -5.5267 2.979 11.659 -5.5267 -0 0 -0 -0 0 -0 -0 0 -0 -0 0 -0 -0 0 -0 -0 0 -0 -0 0 -0 -0 0 -0 -0 0 -0 -0 0 -0 -0 0 -0 -0 0 -0 
0 95.5 0 -0 0 -0 9.7479 6.0575 0.90732 -1.0842 3.549 -6.2931 -1.0842 3.549 -6.2931 -0.93682 2.9735 -5.2895 -0 0 -0 5.5392 -16.432 -20.176 -3.7138 -14.236 6.3189 -12.063 -57.398 -25.06 -0 0 -0 -5.395 -15.825 12.727 12.198 -17.331 13.142 -14.413 -48.16 1.8508 2.6341 11.786 -5.5163 2.6341 11.786 -5.5163 -0 0 -0 -0 0 -0 -0 0 -0 -0 0 -0 -0 0 -0 -0 0 -0 -0 0 -0 -0 0 -0 -0 0 -0 -0 0 -0 -0 0 -0 -0 0 -0 
0 95.5 0 -0 0 -0 9.496 6.0018 -0.033535 -0.95431 3.4905 -6.1533 -0.95431 3.4905 -6.1533 -0.82675 2.9254 -5.1716 -0 0 -0 5.4102 -16.301 -20.086 -4.1179 -14.23 5.5714 -13.212 -56.828 -25.74 -0 0 -0 -5.8394 -15.534 12.482 12.081 -17.742 13.532 -14.76 -47.307 0.043925 2.3985 11.983 -5.4986 2.3985 11.983 -5.4986 -0 0 -0 -0 0 -0 -0 0 -0 -0 0 -0 -0 0 -0 -0 0 -0 -0 0 -0 -0 0 -0 -0 0 -0 -0 0 -0 -0 0 -0 -0 0 -0 
0 95.5 0 -0 0 -0 8.9471 6.0458 -1.5297 -0.75556 3.456 -5.9762 -0.75556 3.456 -5.9762 -0.65886 2.8981 -5.022 -0 0 -0 5.3753 -16.122 -19.897 -4.6662 -14.359 4.8774 -13.818 -56.53 -26.054 -0 0 -0 -6.1024 -15.588 12.239 12.096 -17.753 13.805 -14.088 -45.001 -1.552 2.2756 12.124 -5.5106 2.2756 12.124 -5.5106 -0 0 -0 -0 0 -0 -0 0 -0 -0 0 -0 -0 0 -0 -0 0 -0 -0 0 -0 -0 0 -0 -0 0 -0 -0 0 -0 -0 0 -0 -0 0 -0 
0 95.5 0 -0 0 -0 8.564 6.5581 -3.4933 -0.72752 3.2108 -5.7676 -0.72751 3.2108 -5.7676 -0.6328 2.6924 -4.8467 -0 0 -0 5.5549 -15.585 -19.826 -5.3065 -14.403 4.1214 -13.885 -56.845 -26.104 -0 0 -0 -5.9217 -15.537 11.96 12.385 -17.413 13.582 -11.94 -42 -2.108 2.4969 12.035 -5.4341 2.4969 12.035 -5.4341 -0 0 -0 -0 0 -0 -0 0 -0 -0 0 -0 -0 0 -0 -0 0 -0 -0 0 -0 -0 0 -0 -0 0 -0 -0 0 -0 -0 0 -0 -0 0 -0 
0 95.5 0 -0 0 -0 8.3889 7.3951 -5.4332 -0.81537 2.8811 -5.5786 -0.81537 2.8811 -5.5786 -0.70374 2.415 -4.6881 -0 0 -0 5.868 -14.727 -20.148 -5.8515 -14.474 3.4527 -13.98 -57.427 -26.263 -0 0 -0 -5.2645 -15.669 11.257 12.713 -16.878 12.852 -9.6879 -39.265 -2.0028 2.9376 12.091 -5.4661 2.9376 12.091 -5.4661 -0 0 -0 -0 0 -0 -0 0 -0 -0 0 -0 -0 0 -0 -0 0 -0 -0 0 -0 -0 0 -0 -0 0 -0 -0 0 -0 -0 0 -0 -0 0 -0 
0 95.5 0 -0 0 -0 8.1035 7.5381 -6.917 -0.97296 3.0488 -5.4922 -0.97296 3.0488 -5.4922 -0.83688 2.555 -4.6162 -0 0 -0 6.5491 -14.495 -20.655 -6.2893 -14.602 2.9514 -14.37 -58.101 -26.779 -0 0 -0 -4.1898 -16.316 10.721 12.621 -16.508 11.573 -8.8394 -38.01 -1.4897 3.3393 12.035 -5.4906 3.3393 12.035 -5.4906 -0 0 -0 -0 0 -0 -0 0 -0 -0 0 -0 -0 0 -0 -0 0 -0 -0 0 -0 -0 0 -0 -0 0 -0 -0 0 -0 -0 0 -0 -0 0 -0 
